<svg version="1" xmlns="http://www.w3.org/2000/svg" width="682.667" height="682.667" viewBox="0 0 512.000000 512.000000"><path d="M232.5 5.1c-57.9 5.5-112.9 31.5-154.4 73-98.7 98.7-98.7 258.1 0 356.8 98.6 98.6 257.7 98.7 356.6.3 78.1-77.8 96.6-197.2 45.7-295.1C433 49 334.7-4.6 232.5 5.1zM291 110.5c25.1 4.5 44.4 13.8 59.1 28.4 16.2 16.2 24.8 35.6 29.4 65.8l.7 4.3h-68.9l-2-8.3c-4-16.2-10.5-25.9-21-31.4-8.3-4.4-15.2-5.8-27.8-5.7-16.2.1-25.2 3.9-35.5 15-8.9 9.5-15.3 24.7-18.6 43.9-2.2 12.6-2.6 59.3-.6 72.7 5.1 35.4 19.1 54.7 44.2 60.9 7.8 2 29.8 1.7 37.7-.4 7-1.9 13.2-4.7 18.1-8.4l3.2-2.4V298h-50v-48h121V372.7l-4.7 4.5c-25 23.2-72.3 37.3-119.3 35.5-36.7-1.5-63.3-12.1-85.5-34.1-21.3-21.2-33.3-48.6-37.5-85.4-1.7-14.2-.7-65.9 1.4-76.5 5.2-26.6 13.3-45.9 26.6-63.6 17.5-23.2 43.9-38.5 75.5-43.7 10.7-1.8 41.7-1.1 54.5 1.1z"/></svg>